<svg width="601" height="616" viewBox="0 0 601 616" fill="none" xmlns="http://www.w3.org/2000/svg">
<g filter="url(#filter0_ii_2_38)">
<path fill-rule="evenodd" clip-rule="evenodd" d="M590.018 371.834C593.576 367.101 588.654 360.839 582.986 362.55C560.754 369.263 537.175 372.871 512.753 372.871C378.761 372.871 270.138 264.249 270.138 130.256C270.138 89.0118 280.43 50.1714 298.585 16.1627C301.373 10.9393 296.195 4.89263 290.86 7.46093C209.5 46.6275 153.349 129.851 153.349 226.19C153.349 360.183 261.972 468.805 395.964 468.805C475.306 468.805 545.751 430.72 590.018 371.834Z" fill="url(#paint0_linear_2_38)"/>
</g>
<path d="M591.078 372.631C593.26 369.728 592.822 366.32 591.013 363.967C589.216 361.631 586.015 360.251 582.603 361.281C560.493 367.956 537.044 371.545 512.753 371.545C379.493 371.545 271.464 263.516 271.464 130.256C271.464 89.2349 281.699 50.6084 299.755 16.7871C301.433 13.6426 300.707 10.2342 298.767 8.01689C296.813 5.78427 293.558 4.69079 290.285 6.26625C208.484 45.6454 152.023 129.323 152.023 226.19C152.023 360.915 261.239 470.131 395.964 470.131C475.74 470.131 546.572 431.836 591.078 372.631Z" stroke="black" stroke-opacity="0.02" stroke-width="2.65182"/>
<g filter="url(#filter1_f_2_38)">
<g filter="url(#filter2_i_2_38)">
<path d="M455.786 198.231C458.657 194.518 464.467 195.283 466.28 199.612L476.8 224.738C477.464 226.324 478.764 227.558 480.383 228.138L506.025 237.328C510.443 238.912 511.511 244.674 507.954 247.736L487.309 265.505C486.006 266.627 485.234 268.245 485.182 269.963L484.366 297.19C484.225 301.882 479.075 304.678 475.064 302.241L451.784 288.097C450.315 287.204 448.538 286.971 446.887 287.453L420.741 295.089C416.235 296.405 411.984 292.372 413.063 287.803L419.32 261.293C419.715 259.619 419.389 257.857 418.42 256.436L403.077 233.929C400.433 230.051 402.956 224.762 407.634 224.376L434.781 222.135C436.494 221.993 438.07 221.138 439.122 219.778L455.786 198.231Z" fill="url(#paint1_linear_2_38)"/>
</g>
<g filter="url(#filter3_i_2_38)">
<path d="M390.656 127.042C393.048 124.147 397.673 124.908 399.012 128.416L403.174 139.327C403.664 140.612 404.672 141.632 405.951 142.138L416.812 146.429C420.305 147.809 421.011 152.443 418.087 154.8L408.996 162.13C407.925 162.993 407.267 164.267 407.182 165.64L406.457 177.296C406.224 181.044 402.034 183.147 398.889 181.095L389.109 174.714C387.957 173.963 386.542 173.73 385.21 174.073L373.901 176.985C370.264 177.922 366.969 174.587 367.949 170.962L370.995 159.689C371.354 158.361 371.138 156.943 370.4 155.782L364.136 145.927C362.121 142.758 364.274 138.593 368.025 138.405L379.688 137.818C381.061 137.749 382.343 137.106 383.219 136.045L390.656 127.042Z" fill="url(#paint2_linear_2_38)"/>
</g>
<g filter="url(#filter4_i_2_38)">
<path d="M511.27 166.721C512.191 164.06 515.641 163.381 517.501 165.495L520.281 168.654C520.962 169.428 521.938 169.881 522.97 169.9L527.176 169.98C529.992 170.034 531.704 173.105 530.268 175.528L528.123 179.147C527.597 180.035 527.469 181.103 527.769 182.09L528.993 186.115C529.812 188.81 527.42 191.386 524.672 190.77L520.567 189.848C519.56 189.622 518.505 189.83 517.659 190.42L514.209 192.828C511.899 194.44 508.709 192.962 508.447 190.157L508.054 185.968C507.958 184.941 507.435 184.002 506.612 183.38L503.255 180.842C501.009 179.144 501.429 175.653 504.015 174.537L507.878 172.87C508.825 172.461 509.557 171.672 509.894 170.697L511.27 166.721Z" fill="url(#paint3_linear_2_38)"/>
</g>
</g>
<g filter="url(#filter5_i_2_38)">
<path d="M468.424 164.184C471.734 159.903 478.431 160.785 480.52 165.776L494.516 199.203C495.282 201.031 496.781 202.454 498.647 203.122L532.76 215.349C537.854 217.175 539.085 223.816 534.984 227.346L507.518 250.986C506.016 252.279 505.126 254.144 505.067 256.126L503.98 292.348C503.818 297.757 497.882 300.98 493.258 298.17L462.287 279.354C460.593 278.324 458.544 278.055 456.642 278.611L421.856 288.771C416.662 290.288 411.763 285.638 413.006 280.372L421.331 245.102C421.786 243.173 421.41 241.142 420.293 239.504L399.881 209.56C396.833 205.09 399.741 198.993 405.134 198.548L441.25 195.567C443.225 195.403 445.041 194.418 446.254 192.85L468.424 164.184Z" fill="url(#paint4_linear_2_38)"/>
</g>
<path d="M481.336 165.435C478.984 159.819 471.449 158.827 467.724 163.643L445.554 192.309C444.494 193.68 442.905 194.543 441.177 194.686L405.061 197.667C398.993 198.168 395.721 205.028 399.151 210.058L419.563 240.002C420.539 241.434 420.869 243.212 420.471 244.899L412.146 280.169C410.747 286.094 416.26 291.326 422.104 289.619L456.89 279.459C458.554 278.973 460.346 279.209 461.828 280.109L492.799 298.926C498.002 302.087 504.681 298.46 504.864 292.375L505.95 256.152C506.002 254.419 506.78 252.788 508.095 251.656L535.561 228.016C540.175 224.044 538.79 216.571 533.059 214.517L498.945 202.29C497.313 201.705 496.001 200.461 495.332 198.862L481.336 165.435Z" stroke="black" stroke-opacity="0.05" stroke-width="1.76788"/>
<g filter="url(#filter6_i_2_38)">
<path d="M385.427 73.8241C388.184 70.4868 393.516 71.3638 395.058 75.4082L400.805 90.4728C401.37 91.9544 402.532 93.1301 404.006 93.7128L419.002 99.6372C423.028 101.228 423.841 106.57 420.471 109.287L407.92 119.407C406.685 120.402 405.926 121.871 405.828 123.453L404.827 139.546C404.559 143.866 399.729 146.291 396.104 143.925L382.6 135.115C381.272 134.249 379.641 133.981 378.106 134.376L362.492 138.397C358.3 139.477 354.502 135.633 355.631 131.454L359.837 115.889C360.251 114.359 360.002 112.724 359.151 111.386L350.502 97.7791C348.18 94.126 350.661 89.3259 354.985 89.1085L371.088 88.2987C372.671 88.2191 374.149 87.4774 375.158 86.2548L385.427 73.8241Z" fill="url(#paint5_linear_2_38)"/>
</g>
<path d="M395.884 75.0932C394.1 70.4158 387.933 69.4016 384.745 73.2612L374.477 85.6919C373.625 86.7231 372.379 87.3487 371.043 87.4159L354.94 88.2256C349.94 88.4771 347.07 94.0284 349.756 98.2533L358.405 111.86C359.123 112.989 359.332 114.368 358.984 115.659L354.778 131.224C353.472 136.057 357.864 140.502 362.712 139.253L378.326 135.232C379.621 134.899 380.997 135.125 382.117 135.856L395.621 144.666C399.814 147.401 405.399 144.597 405.709 139.6L406.71 123.508C406.793 122.173 407.433 120.935 408.475 120.095L421.026 109.975C424.923 106.833 423.982 100.655 419.326 98.8151L404.331 92.8907C403.087 92.3992 402.107 91.4075 401.63 90.1578L395.884 75.0932Z" stroke="black" stroke-opacity="0.05" stroke-width="1.76788"/>
<g filter="url(#filter7_i_2_38)">
<path d="M538.497 124.373C539.559 121.305 543.536 120.523 545.68 122.96L549.844 127.691C550.629 128.584 551.754 129.105 552.943 129.128L559.244 129.247C562.49 129.309 564.463 132.849 562.808 135.642L559.595 141.063C558.989 142.087 558.841 143.317 559.187 144.455L561.02 150.485C561.964 153.591 559.207 156.561 556.039 155.85L549.89 154.47C548.73 154.209 547.514 154.449 546.538 155.129L541.37 158.736C538.708 160.594 535.031 158.89 534.729 155.657L534.141 149.383C534.03 148.199 533.427 147.116 532.478 146.399L527.451 142.598C524.861 140.641 525.346 136.617 528.326 135.33L534.112 132.833C535.204 132.361 536.048 131.453 536.437 130.329L538.497 124.373Z" fill="url(#paint6_linear_2_38)"/>
</g>
<path d="M546.344 122.376C543.752 119.43 538.945 120.376 537.662 124.084L535.601 130.04C535.293 130.929 534.626 131.648 533.762 132.021L527.976 134.519C524.374 136.074 523.788 140.937 526.918 143.304L531.945 147.104C532.696 147.671 533.173 148.528 533.261 149.465L533.849 155.74C534.214 159.647 538.659 161.707 541.876 159.461L547.044 155.854C547.816 155.316 548.779 155.126 549.697 155.332L555.846 156.713C559.674 157.572 563.007 153.982 561.866 150.228L560.032 144.198C559.758 143.298 559.876 142.324 560.356 141.514L563.568 136.093C565.569 132.717 563.184 128.438 559.261 128.363L552.96 128.244C552.019 128.226 551.129 127.813 550.507 127.107L546.344 122.376Z" stroke="black" stroke-opacity="0.05" stroke-width="1.76788"/>
<g opacity="0.8" filter="url(#filter8_iif_2_38)">
<ellipse cx="269.485" cy="444.682" rx="162.617" ry="81.2365" transform="rotate(29.8045 269.485 444.682)" fill="url(#paint7_linear_2_38)"/>
</g>
<defs>
<filter id="filter0_ii_2_38" x="150.697" y="-26.4276" width="443.177" height="532.183" filterUnits="userSpaceOnUse" color-interpolation-filters="sRGB">
<feFlood flood-opacity="0" result="BackgroundImageFix"/>
<feBlend mode="normal" in="SourceGraphic" in2="BackgroundImageFix" result="shape"/>
<feColorMatrix in="SourceAlpha" type="matrix" values="0 0 0 0 0 0 0 0 0 0 0 0 0 0 0 0 0 0 127 0" result="hardAlpha"/>
<feOffset dy="-30.6235"/>
<feGaussianBlur stdDeviation="48.9975"/>
<feComposite in2="hardAlpha" operator="arithmetic" k2="-1" k3="1"/>
<feColorMatrix type="matrix" values="0 0 0 0 0.991667 0 0 0 0 0.599132 0 0 0 0 0.622684 0 0 0 1 0"/>
<feBlend mode="normal" in2="shape" result="effect1_innerShadow_2_38"/>
<feColorMatrix in="SourceAlpha" type="matrix" values="0 0 0 0 0 0 0 0 0 0 0 0 0 0 0 0 0 0 127 0" result="hardAlpha"/>
<feOffset dy="34.2983"/>
<feGaussianBlur stdDeviation="21.4364"/>
<feComposite in2="hardAlpha" operator="arithmetic" k2="-1" k3="1"/>
<feColorMatrix type="matrix" values="0 0 0 0 1 0 0 0 0 1 0 0 0 0 1 0 0 0 0.6 0"/>
<feBlend mode="normal" in2="effect1_innerShadow_2_38" result="effect2_innerShadow_2_38"/>
</filter>
<filter id="filter1_f_2_38" x="312.726" y="74.6235" width="268.698" height="279.154" filterUnits="userSpaceOnUse" color-interpolation-filters="sRGB">
<feFlood flood-opacity="0" result="BackgroundImageFix"/>
<feBlend mode="normal" in="SourceGraphic" in2="BackgroundImageFix" result="shape"/>
<feGaussianBlur stdDeviation="25.319" result="effect1_foregroundBlur_2_38"/>
</filter>
<filter id="filter2_i_2_38" x="402.005" y="195.852" width="108.079" height="141.586" filterUnits="userSpaceOnUse" color-interpolation-filters="sRGB">
<feFlood flood-opacity="0" result="BackgroundImageFix"/>
<feBlend mode="normal" in="SourceGraphic" in2="BackgroundImageFix" result="shape"/>
<feColorMatrix in="SourceAlpha" type="matrix" values="0 0 0 0 0 0 0 0 0 0 0 0 0 0 0 0 0 0 127 0" result="hardAlpha"/>
<feOffset dy="34.2983"/>
<feGaussianBlur stdDeviation="21.4364"/>
<feComposite in2="hardAlpha" operator="arithmetic" k2="-1" k3="1"/>
<feColorMatrix type="matrix" values="0 0 0 0 1 0 0 0 0 1 0 0 0 0 1 0 0 0 0.3 0"/>
<feBlend mode="normal" in2="shape" result="effect1_innerShadow_2_38"/>
</filter>
<filter id="filter3_i_2_38" x="363.364" y="125.261" width="56.5485" height="90.9346" filterUnits="userSpaceOnUse" color-interpolation-filters="sRGB">
<feFlood flood-opacity="0" result="BackgroundImageFix"/>
<feBlend mode="normal" in="SourceGraphic" in2="BackgroundImageFix" result="shape"/>
<feColorMatrix in="SourceAlpha" type="matrix" values="0 0 0 0 0 0 0 0 0 0 0 0 0 0 0 0 0 0 127 0" result="hardAlpha"/>
<feOffset dy="34.2983"/>
<feGaussianBlur stdDeviation="21.4364"/>
<feComposite in2="hardAlpha" operator="arithmetic" k2="-1" k3="1"/>
<feColorMatrix type="matrix" values="0 0 0 0 1 0 0 0 0 1 0 0 0 0 1 0 0 0 0.3 0"/>
<feBlend mode="normal" in2="shape" result="effect1_innerShadow_2_38"/>
</filter>
<filter id="filter4_i_2_38" x="501.796" y="164.247" width="28.9906" height="63.5455" filterUnits="userSpaceOnUse" color-interpolation-filters="sRGB">
<feFlood flood-opacity="0" result="BackgroundImageFix"/>
<feBlend mode="normal" in="SourceGraphic" in2="BackgroundImageFix" result="shape"/>
<feColorMatrix in="SourceAlpha" type="matrix" values="0 0 0 0 0 0 0 0 0 0 0 0 0 0 0 0 0 0 127 0" result="hardAlpha"/>
<feOffset dy="34.2983"/>
<feGaussianBlur stdDeviation="21.4364"/>
<feComposite in2="hardAlpha" operator="arithmetic" k2="-1" k3="1"/>
<feColorMatrix type="matrix" values="0 0 0 0 1 0 0 0 0 1 0 0 0 0 1 0 0 0 0.3 0"/>
<feBlend mode="normal" in2="shape" result="effect1_innerShadow_2_38"/>
</filter>
<filter id="filter5_i_2_38" x="396.875" y="159.673" width="142.334" height="180.839" filterUnits="userSpaceOnUse" color-interpolation-filters="sRGB">
<feFlood flood-opacity="0" result="BackgroundImageFix"/>
<feBlend mode="normal" in="SourceGraphic" in2="BackgroundImageFix" result="shape"/>
<feColorMatrix in="SourceAlpha" type="matrix" values="0 0 0 0 0 0 0 0 0 0 0 0 0 0 0 0 0 0 127 0" result="hardAlpha"/>
<feOffset dy="39.5356"/>
<feGaussianBlur stdDeviation="24.7097"/>
<feComposite in2="hardAlpha" operator="arithmetic" k2="-1" k3="1"/>
<feColorMatrix type="matrix" values="0 0 0 0 1 0 0 0 0 1 0 0 0 0 1 0 0 0 0.3 0"/>
<feBlend mode="normal" in2="shape" result="effect1_innerShadow_2_38"/>
</filter>
<filter id="filter6_i_2_38" x="347.842" y="70.0034" width="76.5015" height="116.153" filterUnits="userSpaceOnUse" color-interpolation-filters="sRGB">
<feFlood flood-opacity="0" result="BackgroundImageFix"/>
<feBlend mode="normal" in="SourceGraphic" in2="BackgroundImageFix" result="shape"/>
<feColorMatrix in="SourceAlpha" type="matrix" values="0 0 0 0 0 0 0 0 0 0 0 0 0 0 0 0 0 0 127 0" result="hardAlpha"/>
<feOffset dy="39.5356"/>
<feGaussianBlur stdDeviation="24.7097"/>
<feComposite in2="hardAlpha" operator="arithmetic" k2="-1" k3="1"/>
<feColorMatrix type="matrix" values="0 0 0 0 1 0 0 0 0 1 0 0 0 0 1 0 0 0 0.3 0"/>
<feBlend mode="normal" in2="shape" result="effect1_innerShadow_2_38"/>
</filter>
<filter id="filter7_i_2_38" x="524.001" y="119.752" width="41.1756" height="81.057" filterUnits="userSpaceOnUse" color-interpolation-filters="sRGB">
<feFlood flood-opacity="0" result="BackgroundImageFix"/>
<feBlend mode="normal" in="SourceGraphic" in2="BackgroundImageFix" result="shape"/>
<feColorMatrix in="SourceAlpha" type="matrix" values="0 0 0 0 0 0 0 0 0 0 0 0 0 0 0 0 0 0 127 0" result="hardAlpha"/>
<feOffset dy="39.5356"/>
<feGaussianBlur stdDeviation="24.7097"/>
<feComposite in2="hardAlpha" operator="arithmetic" k2="-1" k3="1"/>
<feColorMatrix type="matrix" values="0 0 0 0 1 0 0 0 0 1 0 0 0 0 1 0 0 0 0.3 0"/>
<feBlend mode="normal" in2="shape" result="effect1_innerShadow_2_38"/>
</filter>
<filter id="filter8_iif_2_38" x="0.182861" y="214.939" width="538.604" height="459.486" filterUnits="userSpaceOnUse" color-interpolation-filters="sRGB">
<feFlood flood-opacity="0" result="BackgroundImageFix"/>
<feBlend mode="normal" in="SourceGraphic" in2="BackgroundImageFix" result="shape"/>
<feColorMatrix in="SourceAlpha" type="matrix" values="0 0 0 0 0 0 0 0 0 0 0 0 0 0 0 0 0 0 127 0" result="hardAlpha"/>
<feOffset dy="-30.6235"/>
<feGaussianBlur stdDeviation="48.9975"/>
<feComposite in2="hardAlpha" operator="arithmetic" k2="-1" k3="1"/>
<feColorMatrix type="matrix" values="0 0 0 0 0.991667 0 0 0 0 0.599132 0 0 0 0 0.622684 0 0 0 1 0"/>
<feBlend mode="normal" in2="shape" result="effect1_innerShadow_2_38"/>
<feColorMatrix in="SourceAlpha" type="matrix" values="0 0 0 0 0 0 0 0 0 0 0 0 0 0 0 0 0 0 127 0" result="hardAlpha"/>
<feOffset dy="34.2983"/>
<feGaussianBlur stdDeviation="21.4364"/>
<feComposite in2="hardAlpha" operator="arithmetic" k2="-1" k3="1"/>
<feColorMatrix type="matrix" values="0 0 0 0 1 0 0 0 0 1 0 0 0 0 1 0 0 0 0.6 0"/>
<feBlend mode="normal" in2="effect1_innerShadow_2_38" result="effect2_innerShadow_2_38"/>
<feGaussianBlur stdDeviation="61.2469" result="effect3_foregroundBlur_2_38"/>
</filter>
<linearGradient id="paint0_linear_2_38" x1="338.96" y1="153.633" x2="312.544" y2="444.215" gradientUnits="userSpaceOnUse">
<stop stop-color="#FEC90B"/>
<stop offset="1" stop-color="#FE9100"/>
</linearGradient>
<linearGradient id="paint1_linear_2_38" x1="446.207" y1="229.439" x2="429.29" y2="306.018" gradientUnits="userSpaceOnUse">
<stop stop-color="#FEC90B"/>
<stop offset="1" stop-color="#FE9100"/>
</linearGradient>
<linearGradient id="paint2_linear_2_38" x1="386.514" y1="142.002" x2="375.862" y2="183.799" gradientUnits="userSpaceOnUse">
<stop stop-color="#FEC90B"/>
<stop offset="1" stop-color="#FE9100"/>
</linearGradient>
<linearGradient id="paint3_linear_2_38" x1="512.569" y1="173.53" x2="515.099" y2="196.921" gradientUnits="userSpaceOnUse">
<stop stop-color="#FEC90B"/>
<stop offset="1" stop-color="#FE9100"/>
</linearGradient>
<linearGradient id="paint4_linear_2_38" x1="455.466" y1="204.887" x2="433.942" y2="302.322" gradientUnits="userSpaceOnUse">
<stop stop-color="#FEC90B"/>
<stop offset="1" stop-color="#FE9100"/>
</linearGradient>
<linearGradient id="paint5_linear_2_38" x1="379.515" y1="93.6345" x2="365.962" y2="146.816" gradientUnits="userSpaceOnUse">
<stop stop-color="#FEC90B"/>
<stop offset="1" stop-color="#FE9100"/>
</linearGradient>
<linearGradient id="paint6_linear_2_38" x1="539.904" y1="133.75" x2="543.123" y2="163.512" gradientUnits="userSpaceOnUse">
<stop stop-color="#FEC90B"/>
<stop offset="1" stop-color="#FE9100"/>
</linearGradient>
<linearGradient id="paint7_linear_2_38" x1="241.816" y1="416.689" x2="237.424" y2="518.038" gradientUnits="userSpaceOnUse">
<stop stop-color="#FEC90B"/>
<stop offset="1" stop-color="#FE9100"/>
</linearGradient>
</defs>
</svg>
